<svg version="1.1" id="Layer_1" xmlns="http://www.w3.org/2000/svg" xmlns:xlink="http://www.w3.org/1999/xlink" x="0px" y="0px"
	 width="100%" viewBox="0 0 1024 400" enable-background="new 0 0 1024 400" xml:space="preserve">
<path fill="#000000" opacity="1.000000" stroke="none" 
	d="
M145.999146,238.939392 
	C134.762695,208.617722 123.644882,178.665939 112.605331,148.685364 
	C110.327042,142.498077 107.551743,136.996262 100.096375,135.952621 
	C98.618881,135.745804 97.710564,134.849915 97.761742,133.226913 
	C97.825180,131.215378 99.202637,130.763702 100.821365,130.760162 
	C111.145996,130.737564 121.470703,130.740356 131.795349,130.759933 
	C133.173462,130.762558 134.527908,131.012558 134.902222,132.653046 
	C135.253403,134.192200 134.465759,135.080307 133.128387,135.805466 
	C127.516724,138.848221 127.234413,139.563492 129.711746,146.287674 
	C138.512054,170.174225 147.371628,194.038940 156.219437,217.907974 
	C160.013824,228.144241 163.834442,238.370758 168.111725,249.860443 
	C173.272644,235.204285 177.982544,221.828979 182.922470,207.800461 
	C186.135315,211.733627 184.859161,215.309738 184.019516,218.380722 
	C179.451614,235.087891 173.168472,251.225464 167.203705,267.466766 
	C166.165710,270.293091 164.055786,270.376526 161.605835,270.446686 
	C158.894333,270.524384 157.289566,269.536530 156.349457,266.926392 
	C153.022873,257.690369 149.557968,248.504181 145.999146,238.939392 
z"/>
<path fill="#000000" opacity="1.000000" stroke="none" 
	d="
M559.798096,259.179932 
	C542.779907,238.515884 541.389221,206.997269 556.334045,185.788696 
	C571.799744,163.840973 607.525696,162.288208 622.611450,182.951828 
	C627.670105,189.880875 629.885925,197.773895 630.380310,206.300705 
	C630.616150,210.368317 629.005859,211.447433 625.182800,211.420380 
	C605.854492,211.283646 586.524841,211.356155 567.195618,211.351959 
	C560.332031,211.350464 560.254944,211.347214 560.344543,218.239975 
	C560.455383,226.766602 561.405151,235.187805 564.596252,243.183411 
	C569.679688,255.920380 578.014526,264.547913 592.690002,264.911011 
	C606.541321,265.253784 617.420471,258.047424 623.447876,244.371765 
	C625.209534,240.374634 626.580811,236.205490 628.309937,231.643219 
	C632.274353,237.999481 624.150208,256.874146 615.043213,264.310455 
	C599.631836,276.894348 576.042908,274.809448 559.798096,259.179932 
M573.032227,178.518250 
	C566.127075,185.188644 563.202087,193.766754 561.457275,202.876160 
	C560.938599,205.583740 561.193420,207.895920 564.949402,207.883789 
	C580.915161,207.832230 596.881165,207.854630 612.847107,207.863831 
	C615.677551,207.865463 616.459351,206.679718 616.131836,203.788971 
	C615.410889,197.426987 613.754883,191.423889 610.847168,185.726364 
	C603.197693,170.737503 586.602112,167.296982 573.032227,178.518250 
z"/>
<path fill="#000000" opacity="1.000000" stroke="none" 
	d="
M392.475372,242.517776 
	C401.254700,264.550323 423.134583,271.915405 440.615448,258.974731 
	C447.300049,254.026337 451.009766,247.002441 453.711761,239.335968 
	C454.560944,236.926605 454.731873,234.180252 456.520721,232.300232 
	C458.572144,232.670197 458.386505,233.939987 458.339935,235.081802 
	C457.747314,249.602081 445.079926,266.376770 431.492188,270.654175 
	C411.856689,276.835419 390.373108,268.088654 381.002991,248.780579 
	C370.970093,228.106750 371.410828,207.054932 383.695404,187.304245 
	C394.907257,169.278198 419.480530,163.187943 438.486969,172.629089 
	C453.513184,180.093109 458.642548,195.915115 458.563568,208.566040 
	C458.541687,212.072128 455.823242,211.314789 453.836456,211.319809 
	C435.020325,211.367310 416.203979,211.360718 397.387726,211.330292 
	C387.951904,211.315033 387.732788,211.295425 388.468597,220.641998 
	C389.040710,227.908813 389.577179,235.248779 392.475372,242.517776 
M399.601074,180.115555 
	C393.594360,186.830368 391.172089,195.088028 389.494324,203.658142 
	C388.983826,206.265808 389.793365,207.867310 392.769440,207.862717 
	C408.918457,207.837799 425.067566,207.853287 441.216614,207.830933 
	C443.736633,207.827454 444.788147,206.593933 444.420624,203.998947 
	C443.577148,198.043640 442.332153,192.219772 439.707886,186.751297 
	C431.715576,170.096848 413.427704,166.786758 399.601074,180.115555 
z"/>
<path fill="#000000" opacity="1.000000" stroke="none" 
	d="
M491.294983,171.036545 
	C495.818329,170.080643 496.035950,172.743576 496.033752,175.653778 
	C496.024353,188.302551 496.029724,200.951324 496.323700,213.671692 
	C499.001831,206.992325 500.957581,200.073181 504.325409,193.712189 
	C510.106750,182.792755 517.690247,173.790497 529.875427,169.777573 
	C538.114197,167.064301 539.378479,168.061081 539.302795,176.725220 
	C539.285706,178.685516 539.620850,180.716080 538.655334,182.537216 
	C518.914978,183.021362 509.866211,189.634308 502.847565,208.488068 
	C496.880920,224.515732 495.321411,241.126282 496.139313,258.061768 
	C496.353607,262.499176 498.216461,265.725372 502.871124,266.732819 
	C504.062836,266.990723 505.180573,267.266876 505.331940,270.234680 
	C494.578125,270.455200 483.891235,270.443481 473.190063,270.220764 
	C473.207947,267.631470 474.032501,267.109131 475.070221,266.914673 
	C481.008270,265.802063 482.681122,261.638000 482.683807,256.300720 
	C482.695221,233.659058 482.595886,211.016739 482.750153,188.376114 
	C482.796814,181.531143 479.246674,178.068497 472.663422,176.352188 
	C478.380493,172.199371 484.940338,172.743073 491.294983,171.036545 
z"/>
<path fill="#000000" opacity="1.000000" stroke="none" 
	d="
M341.294495,197.398239 
	C343.133942,192.340149 344.724426,187.602188 346.527710,182.946655 
	C348.258850,178.477417 347.809357,175.115494 342.601074,173.638519 
	C342.152405,173.511276 341.731049,173.131012 341.411194,172.767746 
	C341.233398,172.565796 341.291901,172.155823 341.137543,171.138885 
	C348.572449,170.340164 355.898102,170.361526 363.400574,171.023392 
	C363.168701,172.058563 363.156647,172.618622 363.019836,172.650986 
	C354.052643,174.771378 350.730835,181.641525 347.901794,189.508698 
	C338.833862,214.725571 329.401886,239.811829 320.037018,264.921112 
	C319.272278,266.971588 319.178314,269.730988 316.215912,270.259521 
	C312.593536,270.905853 310.424835,269.671875 309.083893,265.933533 
	C302.509247,247.604462 295.676575,229.367996 288.945892,211.094818 
	C286.875671,205.474457 284.942566,199.801315 282.764648,194.223434 
	C279.261658,185.251846 277.743042,174.686081 265.366791,171.808395 
	C276.628296,170.557663 287.517609,170.683838 298.902344,170.616882 
	C298.388123,172.088943 298.366608,172.756927 298.063416,172.929169 
	C291.427979,176.699341 290.911652,177.914978 293.559998,185.075058 
	C301.700165,207.083145 309.887878,229.073654 318.070221,251.066101 
	C318.407257,251.972046 318.876343,252.828873 319.975952,255.202408 
	C327.334167,235.227844 334.236389,216.491119 341.294495,197.398239 
z"/>
<path fill="#000000" opacity="1.000000" stroke="none" 
	d="
M234.052475,210.000000 
	C234.048065,202.834244 233.900772,196.164597 234.081787,189.503876 
	C234.242599,183.586349 232.908630,178.883514 226.279617,177.473755 
	C225.973419,177.408646 225.657257,177.187592 225.442947,176.951096 
	C225.234711,176.721268 225.151688,176.377975 224.994461,176.043610 
	C225.223999,174.072495 226.816010,173.989014 228.283325,173.721008 
	C232.700455,172.914215 237.174103,172.328568 241.516830,171.227280 
	C245.955627,170.101639 247.435425,171.385010 247.406387,176.016037 
	C247.246567,201.511597 247.324310,227.008682 247.324554,252.505234 
	C247.324570,254.338120 247.191345,256.190674 247.406616,257.999969 
	C247.912521,262.251892 249.605667,265.693848 254.258163,266.731995 
	C255.438751,266.995453 256.550934,267.273956 256.759766,268.721832 
	C253.429977,270.977783 229.188446,271.122070 224.898132,268.800415 
	C225.276123,268.277191 225.564407,267.424561 226.002792,267.338745 
	C233.639191,265.843964 234.130188,260.212341 234.082550,253.993896 
	C233.971466,239.496704 234.050415,224.998062 234.052475,210.000000 
z"/>
<path fill="#000000" opacity="1.000000" stroke="none" 
	d="
M191.271851,177.141968 
	C190.423172,170.539444 190.328156,164.273071 191.720917,158.028717 
	C194.882904,143.852173 208.945129,132.025970 223.013199,131.784760 
	C225.578125,154.915466 214.749054,173.811493 194.194992,181.686234 
	C193.261917,180.342010 193.699875,177.873352 191.271851,177.141968 
z"/>
<path fill="#000000" opacity="1.000000" stroke="none" 
	d="
M705.842773,239.338104 
	C705.945618,237.437469 705.809082,235.877182 707.647339,234.990219 
	C711.020996,235.877808 710.496460,239.980179 713.123901,241.758102 
	C716.002930,240.488556 714.992432,235.675400 719.372253,234.887436 
	C720.692566,239.895996 720.589844,244.657928 719.540405,249.615341 
	C716.204407,248.872711 717.614807,246.047043 716.306396,244.700562 
	C714.853333,245.231110 714.968689,247.523300 712.801575,247.427109 
	C711.062134,247.124176 711.241028,244.869278 709.789917,243.724014 
	C708.232361,245.380402 710.309143,248.561066 707.258423,249.661774 
	C704.672363,246.670105 706.278809,243.057480 705.842773,239.338104 
z"/>
<path fill="#000000" opacity="1.000000" stroke="none" 
	d="
M781.552734,222.330276 
	C779.384155,222.569244 779.235657,225.069794 777.037842,225.202667 
	C775.491272,223.349472 777.141907,221.660706 777.509644,219.914932 
	C778.275208,216.279800 781.928894,213.178223 779.204041,208.834885 
	C778.491577,207.699203 779.976990,206.355209 781.468323,206.276917 
	C782.915588,206.200928 784.381958,206.487015 786.612366,206.681412 
	C783.002136,213.288971 788.600891,218.645340 789.248779,225.212173 
	C786.109375,224.836472 784.944641,221.096527 781.552734,222.330276 
z"/>
<path fill="#000000" opacity="1.000000" stroke="none" 
	d="
M908.248535,238.031601 
	C908.946716,236.525696 909.283569,235.126572 911.723145,235.191742 
	C912.960632,239.907791 913.570190,244.653366 911.815613,249.913620 
	C908.851746,248.583084 909.869446,246.189026 909.131470,244.441620 
	C907.465698,244.830902 907.596313,247.406250 905.509583,247.361832 
	C903.586304,246.905396 903.509949,244.587982 901.889404,243.362167 
	C901.194580,245.439041 902.633057,248.120926 899.343811,250.002670 
	C898.417603,244.677429 898.156372,239.928207 899.456848,234.956696 
	C903.707031,235.828369 902.758301,240.300735 905.594238,241.711273 
	C907.267761,241.265793 907.367798,239.566360 908.248535,238.031601 
z"/>
<path fill="#000000" opacity="1.000000" stroke="none" 
	d="
M693.619873,215.919510 
	C693.715637,213.904205 693.277405,212.192917 694.609497,210.587738 
	C698.547668,211.272812 697.829956,215.721161 700.376770,217.500870 
	C703.523987,216.331909 702.267517,211.437576 706.653137,210.473358 
	C707.773682,215.446182 707.571411,220.206238 706.736206,225.620865 
	C703.784302,223.859543 705.093628,221.524612 704.191956,219.356964 
	C702.325928,221.421036 700.624939,226.111572 697.940308,220.478821 
	C695.713318,221.471329 697.135376,224.147186 695.010376,225.278015 
	C691.929626,222.732391 694.058777,219.280533 693.619873,215.919510 
z"/>
<path fill="#000000" opacity="1.000000" stroke="none" 
	d="
M732.942139,214.878265 
	C733.185852,213.136658 732.745483,211.429489 735.295654,210.677307 
	C736.932495,214.984711 736.351135,219.425308 735.825317,223.691864 
	C735.524292,226.134186 733.508972,225.715149 732.200256,224.150085 
	C730.412537,222.012115 728.828247,219.703979 726.933838,217.170609 
	C724.969055,219.813293 726.958313,223.203445 723.593933,226.076691 
	C721.944275,220.572723 722.940430,215.746399 722.769165,210.507462 
	C728.420593,210.990173 728.564453,216.731140 732.200256,218.437485 
	C733.265076,217.560333 732.679810,216.298233 732.942139,214.878265 
z"/>
<path fill="#000000" opacity="1.000000" stroke="none" 
	d="
M826.063782,217.199860 
	C826.318298,222.360107 822.474670,224.707397 820.028748,227.885300 
	C812.481995,223.853500 810.422119,221.132370 811.451111,216.373642 
	C812.226807,212.786377 814.276550,210.241516 818.120850,210.070099 
	C822.664490,209.867462 825.061096,212.585281 826.063782,217.199860 
M818.562378,213.144592 
	C817.128967,213.228745 816.012390,213.864929 815.292297,215.110367 
	C813.999939,217.345703 813.890625,219.558456 815.731873,221.545700 
	C817.163696,223.091080 818.946289,223.265305 820.721558,222.216385 
	C822.966492,220.889954 822.971191,218.681915 822.615601,216.474731 
	C822.320435,214.642609 821.141174,213.558685 818.562378,213.144592 
z"/>
<path fill="#000000" opacity="1.000000" stroke="none" 
	d="
M866.979614,244.732513 
	C866.980652,242.952118 866.962097,241.621536 866.997803,240.292404 
	C867.143433,234.872665 868.043152,234.127243 873.709961,234.688309 
	C878.131653,235.126114 879.355164,236.801941 878.181824,241.745163 
	C877.549866,244.407562 880.190552,246.792145 878.445923,249.554474 
	C875.014221,249.458115 876.605957,244.696396 873.429688,244.281174 
	C869.009033,243.703262 871.174438,248.448914 868.747437,249.764252 
	C866.574646,248.833252 867.148315,246.844101 866.979614,244.732513 
M873.353088,237.430801 
	C871.829956,237.544785 870.106506,237.773926 870.842896,239.844742 
	C871.365784,241.315399 873.088562,241.121796 874.211548,240.562393 
	C876.189209,239.577225 875.759094,238.431976 873.353088,237.430801 
z"/>
<path fill="#000000" opacity="1.000000" stroke="none" 
	d="
M715.452942,213.204300 
	C712.898804,214.205933 712.485596,215.348465 715.029114,216.257599 
	C716.467651,216.771774 718.394531,215.918091 719.431213,217.951218 
	C718.308472,220.916748 713.540100,217.745590 712.895874,221.628601 
	C714.669739,224.317444 718.218445,221.638489 720.560730,224.895462 
	C717.133606,226.511856 713.956238,226.463928 710.868835,225.007309 
	C709.276489,224.256042 708.552002,212.263809 710.136047,211.242828 
	C713.333252,209.182022 716.800110,209.386780 720.270203,211.096542 
	C719.226196,213.525406 717.312073,212.826218 715.452942,213.204300 
z"/>
<path fill="#000000" opacity="1.000000" stroke="none" 
	d="
M773.755249,246.190262 
	C769.610596,242.750748 769.200806,242.946701 765.962952,249.494629 
	C763.368835,246.855392 763.122131,239.740631 765.508911,235.174072 
	C768.436462,235.946426 765.985474,240.890945 770.342102,240.980881 
	C774.767212,241.072205 773.161255,236.681839 776.047974,234.805588 
	C778.158447,239.897186 777.222778,244.646362 776.894348,249.389450 
	C773.994324,249.726212 774.164124,247.935303 773.755249,246.190262 
z"/>
<path fill="#000000" opacity="1.000000" stroke="none" 
	d="
M789.865479,220.963699 
	C788.695984,216.480652 789.565491,212.939896 793.519653,210.925507 
	C796.349609,209.483826 799.461182,209.598953 801.750488,212.096741 
	C804.446777,215.038635 805.014648,218.533020 803.058105,222.162888 
	C800.177185,227.507996 794.087585,227.094055 789.865479,220.963699 
M800.635986,219.938904 
	C801.111145,217.346878 801.171387,214.824081 798.325500,213.519287 
	C796.408020,212.640182 794.661987,213.368332 793.497986,215.008942 
	C791.850769,217.330444 791.804688,219.860825 793.999939,221.763565 
	C796.322632,223.776688 798.601013,223.139069 800.635986,219.938904 
z"/>
<path fill="#000000" opacity="1.000000" stroke="none" 
	d="
M751.339417,243.176849 
	C751.022034,245.413696 751.916077,247.512131 749.476257,250.356384 
	C748.069519,244.773239 748.670593,240.140274 749.057556,234.873245 
	C754.335571,235.822754 754.706909,241.124863 758.250061,243.440063 
	C759.806396,240.938110 757.732178,237.466309 760.878174,234.531937 
	C762.824768,240.003525 762.182617,244.762634 761.389465,249.940384 
	C757.139709,248.979843 756.243225,245.389267 754.060303,243.155075 
	C753.345459,242.423462 752.602112,239.790924 751.339417,243.176849 
z"/>
<path fill="#000000" opacity="1.000000" stroke="none" 
	d="
M770.392700,213.295380 
	C765.685974,213.214020 764.627319,215.875488 765.333984,219.501526 
	C766.020630,223.025345 767.637390,223.237228 775.004517,220.969757 
	C774.788513,224.536377 771.905945,226.114197 770.160767,228.370895 
	C770.010559,228.565079 769.538330,228.569077 769.217529,228.563202 
	C766.632019,228.515778 761.280212,220.607864 761.667603,217.427139 
	C762.244385,212.691864 766.322205,209.305420 770.587769,210.152496 
	C773.133606,210.658066 775.133545,211.854584 775.274292,214.865234 
	C773.001160,216.016663 772.258362,213.624649 770.392700,213.295380 
z"/>
<path fill="#000000" opacity="1.000000" stroke="none" 
	d="
M692.193298,247.850708 
	C689.043335,241.312241 690.461975,236.015503 695.467102,234.899994 
	C698.977051,234.117706 702.181519,234.797028 703.944824,238.347641 
	C705.760498,242.003815 705.379395,245.590118 702.304138,248.351822 
	C699.124878,251.206894 695.681824,250.943344 692.193298,247.850708 
M693.318787,242.512619 
	C693.368225,245.337952 694.547180,247.518433 697.556152,247.443100 
	C700.164062,247.377823 701.582581,245.421799 701.744019,242.818771 
	C701.902527,240.262619 700.933105,238.111145 698.290588,237.594391 
	C695.201233,236.990250 693.884521,239.051758 693.318787,242.512619 
z"/>
<path fill="#000000" opacity="1.000000" stroke="none" 
	d="
M752.904663,212.218536 
	C754.038147,210.362625 755.670898,209.620056 756.560242,211.353363 
	C758.756042,215.632965 760.820496,220.048676 761.263611,225.524399 
	C757.119019,221.183151 753.277527,220.821671 749.176147,225.487869 
	C748.874207,220.530533 751.430969,216.701645 752.904663,212.218536 
z"/>
<path fill="#000000" opacity="1.000000" stroke="none" 
	d="
M841.576294,220.839264 
	C841.534180,219.303162 841.477661,218.142181 841.448547,216.980530 
	C841.266418,209.725296 844.710327,207.807129 851.613525,211.374954 
	C850.457214,214.638428 845.882812,211.454651 844.812317,214.966141 
	C845.776733,217.927429 849.310181,215.464478 850.647278,217.817749 
	C849.883728,220.896164 845.125000,217.731476 844.695435,221.499619 
	C846.147888,224.361832 849.959412,221.575760 851.712402,224.511383 
	C849.285217,227.029770 846.279358,225.984390 843.573975,225.624771 
	C841.001221,225.282776 841.667847,222.960693 841.576294,220.839264 
z"/>
<path fill="#000000" opacity="1.000000" stroke="none" 
	d="
M662.062805,224.321716 
	C663.340576,220.269104 664.657104,216.536469 666.075256,212.842819 
	C666.476379,211.798126 666.930420,210.568344 668.338074,210.482437 
	C669.783875,210.394180 670.352356,211.536209 670.697815,212.631790 
	C671.998352,216.756653 674.589844,220.497864 674.805054,224.873886 
	C673.196594,225.681091 672.678772,224.733688 672.026245,223.997498 
	C669.703308,221.376694 667.288757,221.472351 664.875488,223.858200 
	C664.081970,224.642685 663.509766,225.945221 662.062805,224.321716 
z"/>
<path fill="#000000" opacity="1.000000" stroke="none" 
	d="
M744.700562,242.386169 
	C745.228455,245.048630 747.467651,247.000824 746.015137,250.690018 
	C742.460144,245.134338 738.671448,244.836502 734.467834,249.778442 
	C734.285522,244.383499 736.510803,240.063660 738.853088,235.893509 
	C739.840027,234.136246 741.486450,234.777847 742.297241,236.480682 
	C743.154358,238.280807 743.803894,240.179749 744.700562,242.386169 
z"/>
<path fill="#000000" opacity="1.000000" stroke="none" 
	d="
M927.277832,246.890472 
	C924.208008,250.789429 920.651306,251.377136 917.054016,248.803802 
	C913.731018,246.426620 912.993713,242.907623 914.560181,239.078583 
	C916.136780,235.224838 919.263184,234.136765 923.051392,234.853195 
	C927.641113,235.721222 929.277344,240.234009 927.277832,246.890472 
M925.567200,243.148209 
	C925.753357,240.100128 924.573364,237.847000 921.408508,237.478165 
	C918.826843,237.177292 917.543457,238.998901 917.178345,241.367783 
	C916.799133,243.829147 917.257446,246.134888 919.820557,247.151871 
	C922.910645,248.377975 924.334473,246.301758 925.567200,243.148209 
z"/>
<path fill="#000000" opacity="1.000000" stroke="none" 
	d="
M778.968506,248.496323 
	C779.538513,244.169693 781.486145,240.670364 782.969666,237.015350 
	C783.745911,235.102844 785.622742,233.626389 786.913452,236.159897 
	C789.020630,240.295914 791.175354,244.572128 791.719910,250.956039 
	C787.435791,245.862061 783.830261,244.655609 780.193298,249.470932 
	C780.152283,249.525269 779.440247,249.072815 778.968506,248.496323 
z"/>
<path fill="#000000" opacity="1.000000" stroke="none" 
	d="
M800.079285,238.265778 
	C803.578918,234.285568 807.519714,233.536575 810.624817,235.938965 
	C813.564514,238.213379 814.380188,243.202545 812.341492,246.781235 
	C810.249878,250.452835 807.035034,251.065720 803.412781,249.596512 
	C799.526611,248.020294 798.299011,243.861084 800.079285,238.265778 
M802.608887,240.305603 
	C801.865540,242.906647 802.014587,245.295212 804.488037,246.941299 
	C806.124329,248.030182 807.722168,247.580673 809.006104,246.275818 
	C811.190796,244.055450 811.418335,241.378952 809.516235,239.070175 
	C807.333374,236.420532 804.919373,236.901718 802.608887,240.305603 
z"/>
<path fill="#000000" opacity="1.000000" stroke="none" 
	d="
M674.551025,249.259003 
	C674.152527,249.552795 673.895325,249.668793 673.839417,249.605850 
	C670.211914,245.525360 666.577148,244.840912 662.439453,249.810760 
	C662.864014,244.435135 664.651611,239.827042 667.213684,235.581207 
	C668.030823,234.227127 669.781006,234.908218 670.331177,236.424500 
	C671.847412,240.603561 674.348083,244.438919 674.551025,249.259003 
z"/>
<path fill="#000000" opacity="1.000000" stroke="none" 
	d="
M841.770996,247.642700 
	C842.950684,247.785370 843.835754,247.766739 844.144104,249.275284 
	C841.016541,250.926041 837.779114,250.779022 834.630920,249.331696 
	C833.434875,248.781830 832.760193,236.758133 833.934387,235.931519 
	C837.119568,233.689407 840.546387,234.442413 844.159729,235.385880 
	C842.764343,238.863785 838.627869,235.813568 837.447693,238.991104 
	C838.052673,242.339020 842.246582,239.610825 843.279358,242.386917 
	C842.454834,245.351624 838.324280,242.776901 837.444702,245.797104 
	C837.909973,248.144363 839.882507,247.404358 841.770996,247.642700 
z"/>
<path fill="#000000" opacity="1.000000" stroke="none" 
	d="
M828.267822,210.858109 
	C831.556091,212.589676 829.800842,215.504944 830.185791,217.926956 
	C830.516479,220.007812 830.010681,222.682480 833.193542,222.613419 
	C835.934448,222.553970 835.821594,220.160156 836.021362,218.179184 
	C836.274536,215.667450 835.572266,212.917587 837.643433,210.667984 
	C839.967041,214.120285 839.786987,221.574631 837.464722,224.084320 
	C834.554443,227.229523 829.174622,226.225510 827.773743,222.047134 
	C826.562927,218.435669 825.980896,214.650269 828.267822,210.858109 
z"/>
<path fill="#000000" opacity="1.000000" stroke="none" 
	d="
M829.079346,241.890137 
	C831.460693,243.079056 833.273804,244.470856 832.587402,247.026810 
	C831.941833,249.430679 829.801514,250.243683 827.493591,250.246353 
	C824.819214,250.249451 822.290588,249.823624 821.463806,246.529099 
	C824.143188,245.099594 826.615417,249.476868 829.114075,246.066330 
	C827.153198,242.840042 819.799866,243.868942 821.759583,237.500687 
	C822.347778,235.589340 824.080383,234.738953 826.075256,234.679169 
	C828.659424,234.601700 831.024170,234.971024 832.066650,237.931381 
	C829.716187,240.202957 826.906921,235.421432 824.806458,238.762329 
	C824.954712,241.202881 827.309204,240.897278 829.079346,241.890137 
z"/>
<path fill="#000000" opacity="1.000000" stroke="none" 
	d="
M684.453735,250.012817 
	C678.180298,250.050491 674.746399,246.956879 675.098877,242.034103 
	C675.442749,237.231216 678.821472,234.209381 683.328674,234.673584 
	C686.079224,234.956879 686.898193,235.663254 688.561646,239.438461 
	C685.263489,239.299286 681.790466,234.828995 679.029358,239.677170 
	C677.864319,241.722855 677.938049,243.806702 679.376160,245.757217 
	C682.457214,249.936340 685.156006,245.295822 688.322815,245.129791 
	C688.766174,248.156006 686.712280,248.969055 684.453735,250.012817 
z"/>
<path fill="#000000" opacity="1.000000" stroke="none" 
	d="
M846.809753,238.392609 
	C847.022034,237.025223 846.877197,235.905823 848.571045,235.423508 
	C850.037476,237.737045 849.011963,240.444962 849.518311,242.866379 
	C849.917847,244.776993 850.126160,247.322723 852.635193,247.363129 
	C855.441589,247.408340 855.788330,244.961395 855.951355,242.685974 
	C856.132935,240.152588 855.393311,237.410660 857.850159,234.281326 
	C859.640198,239.451843 859.704956,243.754395 857.638123,247.839264 
	C856.481323,250.125671 853.981873,250.634125 851.513794,250.085037 
	C848.990967,249.523758 847.401794,247.788834 847.027283,245.292953 
	C846.709106,243.173065 846.850708,240.984177 846.809753,238.392609 
z"/>
<path fill="#000000" opacity="1.000000" stroke="none" 
	d="
M722.663330,242.888184 
	C722.638367,234.966415 724.714478,232.969620 730.454041,234.985718 
	C732.650574,235.757309 734.144226,237.232529 734.132019,239.698593 
	C734.120728,241.990082 732.649414,243.775528 730.633484,243.877319 
	C726.862305,244.067734 725.190796,246.121597 724.502380,249.831360 
	C721.728027,247.853104 723.016052,245.388306 722.663330,242.888184 
M730.043579,238.401978 
	C728.298889,237.201996 726.621399,236.801788 725.601929,239.191696 
	C725.163269,240.220047 725.632202,241.309189 726.809021,241.493362 
	C728.707458,241.790482 730.660950,241.846130 730.043579,238.401978 
z"/>
<path fill="#000000" opacity="1.000000" stroke="none" 
	d="
M739.601318,212.928680 
	C737.610352,211.914902 737.281189,211.023315 739.294983,210.197937 
	C741.090332,209.462082 746.300049,210.084579 748.992249,211.411774 
	C747.348450,213.272064 744.601074,214.222351 744.919250,217.523987 
	C745.155762,219.978226 745.691650,222.755478 743.780823,225.349991 
	C741.027405,223.992172 742.104736,221.606125 741.764526,219.733429 
	C741.351013,217.457535 742.898010,214.634705 739.601318,212.928680 
z"/>
<path fill="#000000" opacity="1.000000" stroke="none" 
	d="
M677.491333,210.952438 
	C680.675659,212.303543 679.251892,214.954056 679.199341,216.964294 
	C679.097656,220.850281 679.749146,223.499542 684.434326,223.098679 
	C685.280334,223.026291 685.998535,223.536346 686.270142,224.451645 
	C680.382568,227.975784 676.690430,226.205170 676.411682,219.765686 
	C676.284790,216.834290 675.463501,213.861801 677.491333,210.952438 
z"/>
<path fill="#000000" opacity="1.000000" stroke="none" 
	d="
M889.749390,242.297028 
	C890.056885,239.093826 889.036255,237.070267 884.660400,236.371307 
	C889.685669,233.947510 893.068298,234.786667 896.815674,235.446945 
	C890.195862,238.538086 894.823608,245.506668 891.630859,250.004410 
	C888.906372,247.691879 890.110291,245.027084 889.749390,242.297028 
z"/>
<path fill="#000000" opacity="1.000000" stroke="none" 
	d="
M880.951050,242.945709 
	C881.247253,240.025116 880.001770,237.184540 883.287598,234.599243 
	C884.652893,240.038803 884.669617,244.768753 883.280457,250.105804 
	C880.090576,248.056854 881.215454,245.527710 880.951050,242.945709 
z"/>
<path fill="#000000" opacity="1.000000" stroke="none" 
	d="
M688.083618,222.323547 
	C688.405945,218.232620 687.170898,214.335693 689.962341,210.903641 
	C691.561829,215.593185 691.448242,220.311386 690.700867,225.085953 
	C688.331787,225.149078 688.379272,223.809814 688.083618,222.323547 
z"/>
</svg>