<svg version="1.1" id="Layer_1" xmlns="http://www.w3.org/2000/svg" xmlns:xlink="http://www.w3.org/1999/xlink" x="0px" y="0px"
	 width="100%" viewBox="0 0 1024 448" enable-background="new 0 0 1024 448" xml:space="preserve">
<path fill="#000000" opacity="1.000000" stroke="none" 
	d="
M341.497131,253.624695 
	C343.738525,258.826935 344.884674,264.069427 348.136017,269.650970 
	C352.684662,256.524536 356.945984,244.227249 361.569031,230.886124 
	C364.449829,235.427521 364.021973,239.532761 362.874054,242.965073 
	C357.859558,257.958832 352.345428,272.785095 347.058990,287.688629 
	C346.010468,290.644592 343.627014,290.229492 341.299927,290.380157 
	C338.302704,290.574188 337.347473,288.756104 336.479797,286.364929 
	C328.304199,263.834137 320.051758,241.331253 311.833160,218.816055 
	C306.468140,204.118301 301.128296,189.411392 295.765015,174.713013 
	C293.847198,169.457153 290.994873,165.143753 284.887482,164.225739 
	C283.390350,164.000702 282.358185,163.267639 282.383087,161.655960 
	C282.413971,159.659622 283.921173,159.182220 285.489227,159.175522 
	C294.983276,159.135086 304.477783,159.138290 313.971527,159.210403 
	C315.272491,159.220276 316.715424,159.516968 317.024078,161.212967 
	C317.311066,162.790115 316.585571,163.765396 315.066284,164.171722 
	C310.081970,165.504761 310.771912,169.099487 311.998322,172.540421 
	C316.580902,185.397507 321.332214,198.194366 326.003387,211.019958 
	C331.130646,225.097717 336.239319,239.182251 341.497131,253.624695 
z"/>
<path fill="#000000" opacity="1.000000" stroke="none" 
	d="
M569.324097,275.682434 
	C586.159546,290.459320 608.437622,283.539520 616.949768,261.299530 
	C617.983826,258.597900 618.043213,255.418594 620.278992,253.233368 
	C622.720886,253.847733 622.006653,255.430344 621.769043,256.852264 
	C618.658752,275.466461 606.315918,288.513855 590.208374,290.209900 
	C571.824341,292.145660 555.349670,282.440735 548.517639,265.041626 
	C542.155823,248.840042 542.231079,232.496887 549.701416,216.614960 
	C560.015808,194.686600 586.209473,188.410843 605.305603,198.841766 
	C617.629456,205.573410 621.444946,217.153076 622.269043,230.232224 
	C622.525757,234.306656 619.708618,234.210587 616.937500,234.211075 
	C599.622925,234.214127 582.308411,234.231232 564.993835,234.220032 
	C557.888489,234.215424 556.993225,234.863785 557.429565,241.771881 
	C558.203430,254.024612 560.137268,265.961823 569.324097,275.682434 
M605.405273,213.208801 
	C604.086853,210.906815 602.955566,208.470551 601.417053,206.326523 
	C595.305237,197.809402 585.431274,195.132645 575.820374,199.233444 
	C566.927917,203.027695 557.630310,218.293594 558.420532,227.634155 
	C558.656128,230.418884 560.444824,230.711060 562.589050,230.712479 
	C576.705994,230.721786 590.823181,230.694382 604.939758,230.770309 
	C608.060059,230.787079 608.983948,229.381271 608.740417,226.459991 
	C608.377197,222.103638 607.040283,218.020493 605.405273,213.208801 
z"/>
<path fill="#000000" opacity="1.000000" stroke="none" 
	d="
M770.271118,279.236328 
	C755.319458,294.712830 729.927795,293.919708 715.266846,277.809906 
	C698.184326,259.039154 698.605408,224.093689 716.134827,205.770615 
	C728.720459,192.615112 751.035828,190.031097 766.191284,200.100174 
	C777.128967,207.367081 780.243347,218.591873 781.098755,230.773239 
	C781.369019,234.621841 778.203674,234.170792 775.767090,234.175705 
	C758.443359,234.210663 741.119385,234.200073 723.795532,234.198044 
	C716.339294,234.197174 716.248962,234.254883 716.316956,241.692474 
	C716.405029,251.319687 718.318787,260.481842 723.048828,268.996338 
	C732.670166,286.315765 755.650757,288.698364 768.509705,273.605652 
	C772.338257,269.112061 774.882141,263.899200 776.708679,258.292572 
	C777.293213,256.498352 777.228271,254.250977 779.354248,253.201599 
	C782.091309,257.301849 778.130432,268.735779 770.271118,279.236328 
M717.297241,228.255600 
	C717.541199,230.934204 719.590881,230.714783 721.391968,230.718842 
	C735.367493,230.750320 749.343689,230.675812 763.318237,230.799698 
	C766.918457,230.831619 768.185913,229.319229 767.614868,225.967865 
	C766.490967,219.372269 764.785034,212.972351 761.003113,207.318161 
	C753.128662,195.545273 738.009827,193.870026 727.786743,203.755722 
	C721.128723,210.194031 718.410583,218.482956 717.297241,228.255600 
z"/>
<path fill="#000000" opacity="1.000000" stroke="none" 
	d="
M664.265381,217.375366 
	C670.628723,205.880325 678.538940,196.929352 691.976135,194.473999 
	C696.009155,193.737061 697.155823,195.226517 697.063354,198.801300 
	C697.015930,200.632141 697.040405,202.465591 697.065552,204.297394 
	C697.099792,206.795685 696.194763,207.926559 693.432495,207.492157 
	C681.969666,205.689453 674.296326,211.556076 668.495605,220.487213 
	C661.430359,231.365356 658.920044,243.763458 657.341553,256.392975 
	C656.929504,259.689636 656.492737,263.009064 656.459045,266.322021 
	C656.377563,274.352844 654.655823,283.192322 665.801697,286.260406 
	C662.206848,288.909637 639.698792,289.134186 635.707520,287.000366 
	C635.595825,285.973206 636.292053,285.532501 637.062805,285.179688 
	C643.038818,282.444489 644.810669,279.746094 644.501282,273.327911 
	C643.634644,255.348434 644.143066,237.364563 644.284973,219.383179 
	C644.372986,208.232132 644.476685,208.232956 634.918335,200.757751 
	C641.749207,197.546036 648.707092,197.383087 655.957520,196.128174 
	C657.197449,208.762558 655.362000,220.941208 657.379639,233.595184 
	C659.770508,227.927795 661.927856,222.814011 664.265381,217.375366 
z"/>
<path fill="#000000" opacity="1.000000" stroke="none" 
	d="
M516.399841,213.467102 
	C516.701721,212.632477 516.835022,212.149963 517.004700,211.680573 
	C520.098999,203.120270 520.099915,203.120605 513.443359,197.456955 
	C516.651794,195.164948 529.685730,194.946152 534.055420,197.109100 
	C534.233826,198.115768 533.685425,198.831223 532.831787,198.954391 
	C526.290771,199.898163 523.354858,204.483261 521.301514,210.077942 
	C512.530212,233.977295 503.745483,257.871796 494.907379,281.746490 
	C494.115509,283.885590 493.865082,286.464569 491.792175,287.851532 
	C488.780670,289.866455 485.172241,287.958160 483.568817,283.603394 
	C474.946259,260.184998 466.289886,236.778748 457.772949,213.321930 
	C455.312592,206.545746 452.633911,200.203766 444.509796,198.611603 
	C444.210388,198.552933 444.043274,197.819321 443.339508,196.529907 
	C453.952820,196.529907 464.022461,196.529907 474.175507,196.529907 
	C474.075378,197.433258 474.157166,197.936005 473.987854,198.043579 
	C467.456726,202.193146 467.271759,202.254715 470.051758,209.878372 
	C477.683960,230.808212 485.483582,251.676987 494.475647,272.774963 
	C501.733154,253.125092 508.990631,233.475204 516.399841,213.467102 
z"/>
<path fill="#000000" opacity="1.000000" stroke="none" 
	d="
M408.790466,203.202301 
	C407.359558,202.713638 405.990326,202.527374 406.183197,200.947632 
	C406.329498,199.749115 407.489655,199.453796 408.414337,199.273468 
	C413.631378,198.256149 418.869781,197.349060 424.094360,196.369400 
	C426.026886,196.007004 426.949951,196.918152 427.104736,198.705017 
	C427.233734,200.193939 427.218262,201.697815 427.218689,203.195084 
	C427.225250,226.175705 427.333221,249.157196 427.153259,272.136414 
	C427.103821,278.449615 427.770538,283.842560 434.980591,285.785065 
	C435.304749,285.872406 435.473083,286.537964 435.719879,286.943787 
	C431.929077,288.903320 410.116974,288.925446 406.250702,287.027161 
	C406.289886,286.707550 406.265930,286.137268 406.385864,286.105194 
	C414.209869,284.012482 414.873444,278.175873 414.783051,271.334839 
	C414.530121,252.187622 414.737091,233.034729 414.647980,213.884598 
	C414.627747,209.531067 414.447998,205.021378 408.790466,203.202301 
z"/>
<path fill="#000000" opacity="1.000000" stroke="none" 
	d="
M388.504700,197.481857 
	C384.970215,201.371643 380.998871,204.095947 376.729736,206.415543 
	C372.058136,208.953796 369.657990,208.191635 369.074280,203.087051 
	C367.204468,186.735550 370.253357,171.758911 389.968384,164.079971 
	C392.653046,163.034317 395.392792,161.469330 399.207275,162.389618 
	C397.290680,174.540024 398.575409,187.439774 388.504700,197.481857 
z"/>
</svg>